<svg fill="none" height="24" viewBox="0 0 24 24" width="24" xmlns="http://www.w3.org/2000/svg"><g stroke="#141b34" stroke-linecap="round" stroke-width="1.5"><path d="m14.5563 13.2183c-1.0423 1.0423-2.7322 1.0423-3.7746 0-1.04228-1.0424-1.04228-2.7323 0-3.77466l2.3592-2.35914c.9948-.99489 2.5797-1.04017 3.6283-.13584m-.3255-3.16691c1.0423-1.04233 2.7322-1.04233 3.7746 0 1.0423 1.04233 1.0423 2.73228 0 3.77461l-2.3592 2.35914c-.9948.9949-2.5797 1.0402-3.6283.1358"/><path d="m21 13c0 3.7712 0 5.6569-1.1716 6.8284-1.1715 1.1716-3.0572 1.1716-6.8284 1.1716h-2c-3.77124 0-5.65685 0-6.82843-1.1716-1.17157-1.1715-1.17157-3.0572-1.17157-6.8284v-2c0-3.77124 0-5.65685 1.17157-6.82843 1.17158-1.17157 3.05719-1.17157 6.82843-1.17157"/></g></svg>